<svg class="MuiBox-root css-174him9" cursor="pointer" fill="none" viewBox="0 0 19 17" xmlns="http://www.w3.org/2000/svg"><path d="M0.234375 0.864796C0.234375 0.717233 0.297583 0.575715 0.410094 0.471372C0.522606 0.36703 0.675204 0.308411 0.834319 0.308411H2.63415C2.76797 0.308445 2.89794 0.349973 3.00339 0.426392C3.10884 0.50281 3.18371 0.609731 3.21609 0.730151L3.70205 2.53395H17.6327C17.7215 2.534 17.8091 2.5523 17.8893 2.58753C17.9694 2.62277 18.0402 2.67405 18.0964 2.7377C18.1527 2.80135 18.193 2.87577 18.2145 2.9556C18.2359 3.03544 18.2381 3.1187 18.2207 3.19939L17.0208 8.76324C16.9945 8.88457 16.9254 8.99432 16.8244 9.07514C16.7233 9.15595 16.5961 9.20322 16.4628 9.20946L5.18751 9.73469L5.53188 11.4361H15.8329C15.992 11.4361 16.1446 11.4947 16.2571 11.5991C16.3696 11.7034 16.4328 11.8449 16.4328 11.9925C16.4328 12.1401 16.3696 12.2816 16.2571 12.3859C16.1446 12.4903 15.992 12.5489 15.8329 12.5489H5.03392C4.89405 12.5488 4.75863 12.5033 4.65105 12.4204C4.54348 12.3375 4.47051 12.2224 4.44478 12.0949L2.64615 3.2094L2.16619 1.42118H0.834319C0.675204 1.42118 0.522606 1.36256 0.410094 1.25822C0.297583 1.15388 0.234375 1.01236 0.234375 0.864796ZM3.95642 3.64672L4.96433 8.63082L15.9361 8.12006L16.9008 3.64672H3.95642ZM6.23381 12.5489C5.59735 12.5489 4.98696 12.7834 4.53691 13.2007C4.08687 13.6181 3.83404 14.1842 3.83404 14.7744C3.83404 15.3647 4.08687 15.9308 4.53691 16.3481C4.98696 16.7655 5.59735 17 6.23381 17C6.87027 17 7.48066 16.7655 7.93071 16.3481C8.38075 15.9308 8.63358 15.3647 8.63358 14.7744C8.63358 14.1842 8.38075 13.6181 7.93071 13.2007C7.48066 12.7834 6.87027 12.5489 6.23381 12.5489ZM14.633 12.5489C13.9966 12.5489 13.3862 12.7834 12.9361 13.2007C12.4861 13.6181 12.2332 14.1842 12.2332 14.7744C12.2332 15.3647 12.4861 15.9308 12.9361 16.3481C13.3862 16.7655 13.9966 17 14.633 17C15.2695 17 15.8799 16.7655 16.3299 16.3481C16.78 15.9308 17.0328 15.3647 17.0328 14.7744C17.0328 14.1842 16.78 13.6181 16.3299 13.2007C15.8799 12.7834 15.2695 12.5489 14.633 12.5489ZM6.23381 13.6617C6.55204 13.6617 6.85724 13.7789 7.08226 13.9876C7.30728 14.1963 7.4337 14.4793 7.4337 14.7744C7.4337 15.0696 7.30728 15.3526 7.08226 15.5613C6.85724 15.77 6.55204 15.8872 6.23381 15.8872C5.91558 15.8872 5.61038 15.77 5.38536 15.5613C5.16034 15.3526 5.03392 15.0696 5.03392 14.7744C5.03392 14.4793 5.16034 14.1963 5.38536 13.9876C5.61038 13.7789 5.91558 13.6617 6.23381 13.6617ZM14.633 13.6617C14.9512 13.6617 15.2564 13.7789 15.4815 13.9876C15.7065 14.1963 15.8329 14.4793 15.8329 14.7744C15.8329 15.0696 15.7065 15.3526 15.4815 15.5613C15.2564 15.77 14.9512 15.8872 14.633 15.8872C14.3148 15.8872 14.0096 15.77 13.7846 15.5613C13.5595 15.3526 13.4331 15.0696 13.4331 14.7744C13.4331 14.4793 13.5595 14.1963 13.7846 13.9876C14.0096 13.7789 14.3148 13.6617 14.633 13.6617Z" fill="currentColor"></path></svg>