<svg class="MuiBox-root css-1h77ckx" cursor="pointer" fill="none" viewBox="0 0 24 22" xmlns="http://www.w3.org/2000/svg" aria-label="Избранное"><path d="M20.5821 4.43558C20.0769 3.91707 19.477 3.50575 18.8168 3.22512C18.1566 2.94449 17.449 2.80005 16.7343 2.80005C16.0196 2.80005 15.312 2.94449 14.6518 3.22512C13.9916 3.50575 13.3917 3.91707 12.8865 4.43558L11.838 5.51117L10.7895 4.43558C9.76896 3.38872 8.38486 2.80059 6.94164 2.80059C5.49843 2.80059 4.11433 3.38872 3.09382 4.43558C2.07331 5.48245 1.5 6.90231 1.5 8.3828C1.5 9.8633 2.07331 11.2832 3.09382 12.33L4.14233 13.4056L11.838 21.3L19.5336 13.4056L20.5821 12.33C21.0876 11.8118 21.4885 11.1964 21.7621 10.5191C22.0357 9.84185 22.1765 9.11592 22.1765 8.3828C22.1765 7.64969 22.0357 6.92376 21.7621 6.24648C21.4885 5.5692 21.0876 4.95385 20.5821 4.43558V4.43558Z" stroke="currentColor" stroke-linecap="round" stroke-linejoin="round" stroke-width="1.5"></path></svg>