<svg class="MuiBox-root css-1h77ckx" cursor="pointer" fill="none" viewBox="0 0 22 22" xmlns="http://www.w3.org/2000/svg"><path d="M16.5 10C16.5 14.1421 13.1421 17.5 9 17.5C4.85786 17.5 1.5 14.1421 1.5 10C1.5 5.85786 4.85786 2.5 9 2.5C13.1421 2.5 16.5 5.85786 16.5 10Z" stroke="currentColor"></path><path d="M20.1464 21.8536C20.3417 22.0488 20.6583 22.0488 20.8536 21.8536C21.0488 21.6583 21.0488 21.3417 20.8536 21.1464L20.1464 21.8536ZM13.6464 15.3536L16.8964 18.6036L17.6036 17.8964L14.3536 14.6464L13.6464 15.3536ZM16.8964 18.6036L20.1464 21.8536L20.8536 21.1464L17.6036 17.8964L16.8964 18.6036Z" fill="currentColor"></path></svg>